<?xml version="1.0" encoding="UTF-8" standalone="no"?>
<svg
   xmlns:dc="http://purl.org/dc/elements/1.1/"
   xmlns:cc="http://creativecommons.org/ns#"
   xmlns:rdf="http://www.w3.org/1999/02/22-rdf-syntax-ns#"
   xmlns:svg="http://www.w3.org/2000/svg"
   xmlns="http://www.w3.org/2000/svg"
   xmlns:sodipodi="http://sodipodi.sourceforge.net/DTD/sodipodi-0.dtd"
   xmlns:inkscape="http://www.inkscape.org/namespaces/inkscape"
   version="1.1"
   width="420mm"
   height="297mm"
   viewBox="0 0 420 297"
   id="svg2"
   inkscape:version="0.91 r13725"
   sodipodi:docname="pic2.svg">
  <sodipodi:namedview
     pagecolor="#ffffff"
     bordercolor="#666666"
     borderopacity="1"
     objecttolerance="10"
     gridtolerance="10"
     guidetolerance="10"
     inkscape:pageopacity="0"
     inkscape:pageshadow="2"
     inkscape:window-width="1920"
     inkscape:window-height="1026"
     id="namedview185"
     showgrid="false"
     inkscape:zoom="0.70710678"
     inkscape:cx="803.20147"
     inkscape:cy="574.42515"
     inkscape:window-x="0"
     inkscape:window-y="25"
     inkscape:window-maximized="1"
     inkscape:current-layer="svg2" />
  <metadata
     id="metadata187">
    <rdf:RDF>
      <cc:Work
         rdf:about="">
        <dc:format>image/svg+xml</dc:format>
        <dc:type
           rdf:resource="http://purl.org/dc/dcmitype/StillImage" />
      </cc:Work>
    </rdf:RDF>
  </metadata>
  <!-- Working space 0 0 420 297 -->
  <defs
     id="defs4">
    <radialGradient
       r="19.571"
       gradientTransform="matrix(.14777 .23089 -.24680 .15795 -26.318 -62.617)"
       cx="282.65"
       cy="29.149"
       gradientUnits="userSpaceOnUse"
       id="radialGradient3661">
      <stop
         id="stop7"
         offset="0"
         stop-color="#71b2f8" />
      <stop
         id="stop9"
         offset="1"
         stop-color="#002795" />
    </radialGradient>
    <radialGradient
       r="19.571"
       gradientTransform="matrix(.26631 .065024 -.17931 .73438 -60.668 -36.938)"
       cx="270.58"
       cy="33.9"
       gradientUnits="userSpaceOnUse"
       id="radialGradient3817">
      <stop
         id="stop12"
         offset="0"
         stop-color="#ff6d0f" />
      <stop
         id="stop14"
         offset="1"
         stop-color="#ff1000" />
    </radialGradient>
    <marker
       inkscape:stockid="Arrow1Lstart"
       style="overflow:visible"
       refY="0.0"
       refX="0.0"
       orient="auto"
       id="Arrow1Lstart">
      <path
         id="path3605"
         style="fill-rule:evenodd;stroke:#000000;stroke-width:1.0pt;marker-start:none"
         transform="scale(0.8) translate(12.5,0)"
         d="M 0.0,0.0 L 5.0,-5.0 L -12.5,0.0 L 5.0,5.0 L 0.0,0.0 z " />
    </marker>
    <marker
       inkscape:stockid="Arrow1Lend"
       style="overflow:visible"
       refY="0.0"
       refX="0.0"
       orient="auto"
       id="Arrow1Lend">
      <path
         id="path3608"
         style="fill-rule:evenodd;stroke:#000000;stroke-width:1.0pt;marker-start:none"
         transform="scale(0.8) rotate(180) translate(12.5,0)"
         d="M 0.0,0.0 L 5.0,-5.0 L -12.5,0.0 L 5.0,5.0 L 0.0,0.0 z " />
    </marker>
  </defs>
  <!-- Set display:none to hide FreeCAD Logo -->
  <g
     transform="matrix(0,-1.5,-1.5,0,208.56655,132.11775)"
     id="g98"
     style="fill:none;stroke:#000000;stroke-width:0.23333301;stroke-linecap:butt;stroke-linejoin:miter">
    <path
       d="M 28.4776,1.15845 C 33.1127,0.914728 39.9597,0.554695 48.9111,0.0840065"
       id="path100"
       inkscape:connector-curvature="0" />
    <path
       d="M 48.9111,-0.0840065 C 39.9596,-0.554701 33.1125,-0.914737 28.4774,-1.15846"
       id="path102"
       inkscape:connector-curvature="0" />
    <path
       d="M 28.389,2.51663 C 33.481,2.24978 38.4485,1.98944 43.0475,1.74841"
       id="path104"
       inkscape:connector-curvature="0" />
    <path
       d="M 47.653,1.50705 C 39.4375,1.93761 32.9879,2.27562 28.389,2.51663"
       id="path106"
       inkscape:connector-curvature="0" />
    <path
       d="M 43.0475,-1.74841 C 38.4486,-1.98944 33.4811,-2.24977 28.3892,-2.51663"
       id="path108"
       inkscape:connector-curvature="0" />
    <path
       d="m 43.0475,-1.74841 c 1.0175,0.05332 2.3034,0.12071 3.2666,0.17119 0.429,0.02248 0.7947,0.04165 1.0601,0.05556 0.3218,0.01686 0.495,0.02594 0.4941,0.02589"
       id="path110"
       inkscape:connector-curvature="0" />
    <path
       d="m 47.8683,-1.49577 q -9e-4,-5e-5 -0.2153,-0.01128"
       id="path112"
       inkscape:connector-curvature="0" />
    <path
       d="m 28.3892,-2.51663 c 4.5988,0.24102 11.0484,0.57903 19.2638,1.00958"
       id="path114"
       inkscape:connector-curvature="0" />
    <path
       d="m 49.2187,0.0727226 q -0.0013,4.87e-5 -0.3076,0.0112839"
       id="path116"
       inkscape:connector-curvature="0" />
    <path
       d="m 48.9111,-0.0840065 q 0.3063,0.0112352 0.3076,0.0112839"
       id="path118"
       inkscape:connector-curvature="0" />
    <path
       d="M 42.338,-0.429638 A 1.425,0.640336 93 0 1 43.0475,-1.74841"
       id="path120"
       inkscape:connector-curvature="0" />
    <path
       d="m -1.15851,28.4764 c 0.243721,4.6351 0.603775,11.4825 1.0745035,20.4347"
       id="path122"
       inkscape:connector-curvature="0" />
    <path
       d="M 0.0840065,48.9111 C 0.554735,39.9589 0.914789,33.1115 1.15851,28.4764"
       id="path124"
       inkscape:connector-curvature="0" />
    <path
       d="m -2.51665,28.3887 c 0.26686,5.092 0.52721,10.0597 0.76824,14.6588"
       id="path126"
       inkscape:connector-curvature="0" />
    <path
       d="M -1.50705,47.653 C -1.93762,39.4373 -2.27564,32.9876 -2.51665,28.3887"
       id="path128"
       inkscape:connector-curvature="0" />
    <path
       d="M 2.51665,28.3887 C 2.27564,32.9876 1.93762,39.4373 1.50705,47.653"
       id="path130"
       inkscape:connector-curvature="0" />
    <path
       d="M 1.74841,43.0475 C 1.98944,38.4484 2.24979,33.4807 2.51665,28.3887"
       id="path132"
       inkscape:connector-curvature="0" />
    <path
       d="M 1.74841,43.0475 C 1.69509,44.065 1.6277,45.3509 1.57722,46.3141 1.55474,46.7431 1.53557,47.1088 1.52166,47.3742 1.5048,47.696 1.49572,47.8692 1.49577,47.8683"
       id="path134"
       inkscape:connector-curvature="0" />
    <path
       d="m 1.49577,47.8683 q 5e-5,-9e-4 0.01128,-0.2153"
       id="path136"
       inkscape:connector-curvature="0" />
    <path
       d="m -0.0727226,49.2187 q -4.87e-5,-0.0013 -0.0112839,-0.3076"
       id="path138"
       inkscape:connector-curvature="0" />
    <path
       d="M 0.0840065,48.9111 Q 0.0727713,49.2174 0.0727226,49.2187"
       id="path140"
       inkscape:connector-curvature="0" />
    <path
       d="M 0.429638,42.338 A 1.425,0.640336 -177 0 1 1.74841,43.0475"
       id="path142"
       inkscape:connector-curvature="0" />
    <path
       d="m -28.4764,-1.15851 c -4.6351,0.243721 -11.4825,0.603775 -20.4347,1.0745035"
       id="path144"
       inkscape:connector-curvature="0" />
    <path
       d="M -48.9111,0.0840065 C -39.9589,0.554735 -33.1115,0.914789 -28.4764,1.15851"
       id="path146"
       inkscape:connector-curvature="0" />
    <path
       d="m -28.3887,-2.51665 c -5.092,0.26686 -10.0597,0.52721 -14.6588,0.76824"
       id="path148"
       inkscape:connector-curvature="0" />
    <path
       d="m -47.653,-1.50705 c 8.2157,-0.43057 14.6654,-0.76859 19.2643,-1.0096"
       id="path150"
       inkscape:connector-curvature="0" />
    <path
       d="M -28.3887,2.51665 C -32.9876,2.27564 -39.4373,1.93762 -47.653,1.50705"
       id="path152"
       inkscape:connector-curvature="0" />
    <path
       d="m -43.0475,1.74841 c 4.5991,0.24103 9.5668,0.50138 14.6588,0.76824"
       id="path154"
       inkscape:connector-curvature="0" />
    <path
       d="m -49.2187,-0.0727226 q 0.0013,-4.87e-5 0.3076,-0.0112839"
       id="path156"
       inkscape:connector-curvature="0" />
    <path
       d="M -48.9111,0.0840065 Q -49.2174,0.0727713 -49.2187,0.0727226"
       id="path158"
       inkscape:connector-curvature="0" />
    <path
       d="M -42.338,0.429638 A 1.425,0.640336 -87 0 1 -43.0475,1.74841"
       id="path160"
       inkscape:connector-curvature="0" />
    <path
       d="M 1.15844,-28.4778 C 0.914717,-33.1129 0.554688,-39.9598 0.0840065,-48.9111"
       id="path162"
       inkscape:connector-curvature="0" />
    <path
       d="M -0.0840065,-48.9111 C -0.554701,-39.9596 -0.914738,-33.1125 -1.15846,-28.4774"
       id="path164"
       inkscape:connector-curvature="0" />
    <path
       d="M 2.51661,-28.3895 C 2.24976,-33.4813 1.98943,-38.4487 1.74841,-43.0475"
       id="path166"
       inkscape:connector-curvature="0" />
    <path
       d="m 1.50705,-47.653 c 0.43055,8.2152 0.76855,14.6647 1.00956,19.2635"
       id="path168"
       inkscape:connector-curvature="0" />
    <path
       d="m -2.51663,-28.3891 c 0.24101,-4.5988 0.57902,-11.0484 1.00958,-19.2639"
       id="path170"
       inkscape:connector-curvature="0" />
    <path
       d="m -1.74841,-43.0475 c -0.24103,4.599 -0.50137,9.5665 -0.76822,14.6584"
       id="path172"
       inkscape:connector-curvature="0" />
    <path
       d="m 0.0727226,-49.2187 q 4.87e-5,0.0013 0.0112839,0.3076"
       id="path174"
       inkscape:connector-curvature="0" />
    <path
       d="m -0.0840065,-48.9111 q 0.0112352,-0.3063 0.0112839,-0.3076"
       id="path176"
       inkscape:connector-curvature="0" />
    <path
       d="M -0.429638,-42.338 A 1.425,0.640336 3 0 1 -1.74841,-43.0475"
       id="path178"
       inkscape:connector-curvature="0" />
  </g>
  <g
     id="g180"
     transform="translate(10,10) rotate(0)">
    <text
       fill="#000000"
       font-size="7"
       font-family="Sans"
       id="Annotation">
      <tspan
         id="tspan183"
         dy="1em"
         x="0" />
    </text>
  </g>
  <g
     id="g3657"
     stroke="black"
     fill="none">
    <path
       id="path3665"
       d="m 119.10694,89.472772 0,85.036568"
       inkscape:connector-curvature="0"
       style="stroke-width:0.21417476;marker-start:url(#Arrow1Lstart);marker-end:url(#Arrow1Lend)" />
    <path
       id="path3667"
       d="m 108.54344,89.71128 98.59136,0"
       inkscape:connector-curvature="0"
       style="stroke-width:0.10565119" />
    <path
       id="path3669"
       d="m 106.51624,175.03101 100.11176,0"
       inkscape:connector-curvature="0"
       style="stroke-width:0.10646271" />
    <g
       transform="matrix(0,-1.5,-1.5,0,208.56655,132.11775)"
       id="g22"
       style="fill:none;stroke:#000000;stroke-width:0.23333301;stroke-linecap:butt;stroke-linejoin:miter">
      <path
         d="m -28.3567,-2.85447 c -0.437,4.30611 0.1272,8.70948 1.6358,12.7663 1.502,4.05927 3.9459,7.76537 7.0854,10.74487 3.1346,2.9845 6.9598,5.2376 11.08995,6.532 4.12803,1.3012 8.554325,1.6416 12.83278,0.987 4.27952,-0.6476 8.40427,-2.2891 11.95837,-4.7593 3.3733,-2.3365 6.2314,-5.4152 8.3113,-8.9523 2.085,-3.5341 3.3919,-7.52653 3.7998,-11.60963"
         id="path24"
         inkscape:connector-curvature="0" />
      <path
         d="m 49.2187,0.072723 0,-0.1454458"
         id="path26"
         inkscape:connector-curvature="0" />
      <path
         d="m 28.3892,-2.51663 c 4.5993,0.24104 11.0491,0.57906 19.2646,1.00962"
         id="path28"
         inkscape:connector-curvature="0" />
      <path
         d="m 43.0471,-1.74844 c 0.9855,0.05165 2.2228,0.11649 3.1749,0.16639 0.5863,0.03073 1.0628,0.0557 1.3445,0.07047 0.2005,0.0105 0.3014,0.01579 0.3027,0.01586"
         id="path30"
         inkscape:connector-curvature="0" />
      <path
         d="m 47.6539,-1.50701 c 0.1277,0.00669 0.172,0.00902 0.1937,0.01016 0.0206,0.00107 0.0201,0.00105 0.0213,0.00111 1e-4,1e-5 2e-4,1e-5 3e-4,2e-5 -3e-4,-2e-5 -6e-4,-3e-5 -9e-4,-5e-5"
         id="path32"
         inkscape:connector-curvature="0" />
      <path
         d="M 49.2187,-0.0727227 C 49.22,-0.433788 49.0769,-0.792632 48.8274,-1.05363 48.58,-1.31623 48.2295,-1.47795 47.8692,-1.49572"
         id="path34"
         inkscape:connector-curvature="0" />
      <path
         d="m 28.3892,-2.51663 c 5.0911,0.26682 10.0585,0.52715 14.6579,0.76819"
         id="path36"
         inkscape:connector-curvature="0" />
      <path
         d="M 28.389,2.51663 C 32.99,2.27551 39.4367,1.93765 47.6538,1.50701"
         id="path38"
         inkscape:connector-curvature="0" />
      <path
         d="M 49.2187,0.0727226 C 49.22,0.433788 49.0769,0.792632 48.8274,1.05363 48.58,1.31622 48.2295,1.47794 47.8692,1.49572 c -0.0017,9e-5 0.0069,-3.6e-4 -0.0158,8.3e-4 -0.0329,0.00173 -0.1141,0.00598 -0.2434,0.01276 -0.13,0.00681 -0.3024,0.01584 -0.5172,0.0271 -0.4349,0.0228 -1.0335,0.05416 -1.6891,0.08852 -0.7801,0.04088 -1.6358,0.08573 -2.3566,0.12351"
         id="path40"
         inkscape:connector-curvature="0" />
      <path
         d="M 28.389,2.51663 C 33.4803,2.24981 38.4476,1.98949 43.0471,1.74844"
         id="path42"
         inkscape:connector-curvature="0" />
      <path
         d="m -0.072723,49.2187 0.1454458,0"
         id="path44"
         inkscape:connector-curvature="0" />
      <path
         d="M 2.51665,28.3887 C 2.27561,32.988 1.93758,39.438 1.50701,47.6538"
         id="path46"
         inkscape:connector-curvature="0" />
      <path
         d="M 1.74844,43.0471 C 1.69679,44.0326 1.63195,45.2699 1.58205,46.222 1.55132,46.8083 1.52635,47.2848 1.51158,47.5665 1.50108,47.767 1.49579,47.8679 1.49572,47.8692"
         id="path48"
         inkscape:connector-curvature="0" />
      <path
         d="m 1.49572,47.8692 c -0.00349,0.0666 -0.00179,0.0342 -0.00129,0.0246 7.5e-4,-0.0143 0.00117,-0.0222 0.00125,-0.0237 6e-5,-0.0012 7e-5,-0.0015 4e-5,-9e-4 2e-5,-3e-4 3e-5,-6e-4 5e-5,-9e-4"
         id="path50"
         inkscape:connector-curvature="0" />
      <path
         d="M 0.0727227,49.2187 C 0.433788,49.22 0.792632,49.0769 1.05363,48.8274 1.31623,48.58 1.47795,48.2295 1.49572,47.8692"
         id="path52"
         inkscape:connector-curvature="0" />
      <path
         d="M 2.51665,28.3887 C 2.24983,33.48 1.98949,38.4476 1.74844,43.0471"
         id="path54"
         inkscape:connector-curvature="0" />
      <path
         d="m -2.51665,28.3887 c 0.24112,4.601 0.57899,11.0477 1.00964,19.2651"
         id="path56"
         inkscape:connector-curvature="0" />
      <path
         d="M -0.0727226,49.2187 C -0.506557,49.2214 -0.934909,49.0115 -1.19869,48.6671 c -0.12066,-0.1563 -0.2056,-0.33 -0.25481,-0.5212 -0.02318,-0.0908 -0.03726,-0.1831 -0.04222,-0.2767 0,0 0,0 0,0 1.1e-4,0.0022 -0.01462,-0.2789 -0.0408,-0.7785 -0.02283,-0.4355 -0.05421,-1.0344 -0.08858,-1.6902 -0.04084,-0.7792 -0.08561,-1.6336 -0.12334,-2.3534"
         id="path58"
         inkscape:connector-curvature="0" />
      <path
         d="m -2.51665,28.3887 c 0.26682,5.0913 0.52716,10.0588 0.76821,14.6584"
         id="path60"
         inkscape:connector-curvature="0" />
      <path
         d="m -49.2187,-0.072723 0,0.1454458"
         id="path62"
         inkscape:connector-curvature="0" />
      <path
         d="M -28.3887,2.51665 C -32.988,2.27561 -39.438,1.93758 -47.6538,1.50701"
         id="path64"
         inkscape:connector-curvature="0" />
      <path
         d="M -43.0471,1.74844 C -44.0326,1.69679 -45.2699,1.63195 -46.222,1.58205 -46.8083,1.55132 -47.2848,1.52635 -47.5665,1.51158 -47.767,1.50108 -47.8679,1.49579 -47.8692,1.49572"
         id="path66"
         inkscape:connector-curvature="0" />
      <path
         d="m -49.2187,0.0727227 c -6e-4,0.2886433 0.0897,0.5765613 0.2549,0.8132663 0.1418,0.204561 0.3383,0.370631 0.5637,0.476271 0.1684,0.07879 0.3453,0.12328 0.5309,0.13346 0,0 0,0 0,0 7e-4,4e-5 0.0725,0.0038 0.2154,0.01129"
         id="path68"
         inkscape:connector-curvature="0" />
      <path
         d="M -28.3887,2.51665 C -33.48,2.24983 -38.4476,1.98949 -43.0471,1.74844"
         id="path70"
         inkscape:connector-curvature="0" />
      <path
         d="m -28.3887,-2.51665 c -4.601,0.24112 -11.0477,0.57899 -19.2651,1.00964"
         id="path72"
         inkscape:connector-curvature="0" />
      <path
         d="m -49.2187,-0.0727226 c -0.0013,-0.3610654 0.1418,-0.7199094 0.3913,-0.9809074 0.2474,-0.26259 0.5979,-0.42431 0.9582,-0.44209 0.0017,-9e-5 -0.0067,3.5e-4 0.0154,-8.1e-4 0.0324,-0.0017 0.1131,-0.00593 0.242,-0.01268 0.1295,-0.00679 0.3015,-0.0158 0.516,-0.02704 0.4342,-0.02276 1.0321,-0.0541 1.6875,-0.08844 0.7813,-0.04095 1.639,-0.0859 2.3612,-0.12375"
         id="path74"
         inkscape:connector-curvature="0" />
      <path
         d="m -28.3887,-2.51665 c -5.0913,0.26682 -10.0588,0.52716 -14.6584,0.76821"
         id="path76"
         inkscape:connector-curvature="0" />
      <path
         d="m 0.072723,-49.2187 -0.1454458,0"
         id="path78"
         inkscape:connector-curvature="0" />
      <path
         d="m -2.51663,-28.3891 c 0.24104,-4.5993 0.57906,-11.0491 1.00962,-19.2647"
         id="path80"
         inkscape:connector-curvature="0" />
      <path
         d="m -1.74844,-43.0471 c 0.05165,-0.9855 0.11649,-2.2228 0.16639,-3.1749 0.03073,-0.5863 0.0557,-1.0628 0.07047,-1.3445 0.0105,-0.2005 0.01579,-0.3014 0.01586,-0.3027"
         id="path82"
         inkscape:connector-curvature="0" />
      <path
         d="m -1.49572,-47.8692 c 2.2e-4,-0.0043 -7e-5,0.0013 0,0"
         id="path84"
         inkscape:connector-curvature="0" />
      <path
         d="m -0.0727227,-49.2187 c -0.3610653,-0.0013 -0.7199093,0.1418 -0.9809073,0.3913 -0.2626,0.2474 -0.42432,0.5979 -0.44209,0.9582"
         id="path86"
         inkscape:connector-curvature="0" />
      <path
         d="m -2.51663,-28.3891 c 0.26681,-5.0911 0.52715,-10.0586 0.76819,-14.658"
         id="path88"
         inkscape:connector-curvature="0" />
      <path
         d="M 2.51661,-28.3895 C 2.27549,-32.9904 1.93764,-39.4369 1.50701,-47.6538"
         id="path90"
         inkscape:connector-curvature="0" />
      <path
         d="m 0.0727226,-49.2187 c 0.3610654,-0.0013 0.7199094,0.1418 0.9809074,0.3913 0.26259,0.2474 0.42431,0.5979 0.44209,0.9582 8e-5,0.0016 -3.2e-4,-0.0062 7.6e-4,0.0144 0.00164,0.0313 0.00581,0.111 0.01252,0.2389 0.00701,0.1338 0.01642,0.3134 0.02824,0.5389 0.02255,0.4302 0.05327,1.0165 0.08692,1.6585 0.04108,0.784 0.08626,1.646 0.12428,2.3714"
         id="path92"
         inkscape:connector-curvature="0" />
      <path
         d="M 2.51661,-28.3895 C 2.2498,-33.4805 1.98948,-38.4477 1.74844,-43.0471"
         id="path94"
         inkscape:connector-curvature="0" />
      <path
         d="m 28.3567,2.85447 c 0.375,-3.66581 0.0178,-7.42059 -1.0355,-10.96303 -1.0501,-3.54454 -2.7958,-6.87594 -5.1099,-9.75094 -2.3111,-2.8773 -5.1902,-5.2975 -8.4266,-7.084 -3.2338,-1.7892 -6.82431,-2.9442 -10.48517,-3.3649 -3.732804,-0.4417 -7.57093,-0.1218 -11.1934,0.9246 -3.62463,1.0428 -7.03293,2.8116 -9.96573,5.1724 -2.9354,2.3576 -5.3945,5.3067 -7.1912,8.623 -1.7996,3.3133 -2.936,6.99333 -3.3059,10.73393"
         id="path96"
         inkscape:connector-curvature="0" />
    </g>
    <text
       xml:space="preserve"
       style="font-style:normal;font-weight:normal;font-size:11.28888893px;line-height:125%;font-family:sans-serif;letter-spacing:0px;word-spacing:0px;fill:#000000;fill-opacity:1;stroke:none;stroke-width:1px;stroke-linecap:butt;stroke-linejoin:miter;stroke-opacity:1"
       x="91.891533"
       y="133.70685"
       id="text3813"
       sodipodi:linespacing="125%"><tspan
         sodipodi:role="line"
         id="tspan3815"
         x="91.891533"
         y="133.70685">0.05</tspan></text>
    <text
       xml:space="preserve"
       style="font-style:normal;font-weight:normal;font-size:11.28888893px;line-height:125%;font-family:sans-serif;letter-spacing:0px;word-spacing:0px;fill:#000000;fill-opacity:1;stroke:none;stroke-width:1px;stroke-linecap:butt;stroke-linejoin:miter;stroke-opacity:1"
       x="301.54608"
       y="54.496151"
       id="text3817"
       sodipodi:linespacing="125%"><tspan
         sodipodi:role="line"
         id="tspan3819"
         x="301.54608"
         y="54.496151" /></text>
    <flowRoot
       xml:space="preserve"
       id="flowRoot3821"
       style="fill:black;stroke:none;stroke-opacity:1;stroke-width:1px;stroke-linejoin:miter;stroke-linecap:butt;fill-opacity:1;font-family:sans-serif;font-style:normal;font-weight:normal;font-size:40px;line-height:125%;letter-spacing:0px;word-spacing:0px"><flowRegion
         id="flowRegion3823"><rect
           id="rect3825"
           width="12"
           height="42"
           x="344"
           y="446.86218" /></flowRegion><flowPara
         id="flowPara3827"></flowPara></flowRoot>  </g>
</svg>
